<?xml version="1.0" encoding="utf-8"?>
<!-- Generator: Adobe Illustrator 18.1.1, SVG Export Plug-In . SVG Version: 6.00 Build 0)  -->
<svg version="1.1" id="Layer_1" xmlns="http://www.w3.org/2000/svg" xmlns:xlink="http://www.w3.org/1999/xlink" x="0px" y="0px"
	 width="180.4px" height="33.2px" viewBox="0 0 180.4 33.2" enable-background="new 0 0 180.4 33.2" xml:space="preserve">
<text transform="matrix(1 0 0 1 426.4279 149.0152)"><tspan x="0" y="0" fill="#D91F26" font-family="'RussoOne-Regular'" font-size="67.2311">GB</tspan><tspan x="94.8" y="0" font-family="'RussoOne-Regular'" font-size="67.2311">ihvijesti</tspan></text>
<g>
	<path fill="#D91F26" d="M21.6,25.1c-5.2,0.6-9.9,0.8-14.3,0.8c-2.2,0-3.8-0.5-4.8-1.5c-1-1-1.5-2.6-1.5-4.8V9C1,6.7,1.5,5,2.6,4
		c1-1,2.7-1.6,5.1-1.6h11.9V7H9C7.6,7,7,7.7,7,9v10.6c0,0.5,0.1,0.9,0.4,1.2c0.3,0.3,0.7,0.4,1.2,0.4c2.5,0,4.9-0.1,7-0.2v-4.8h-4.3
		v-4h10.3V25.1z"/>
	<path fill="#D91F26" d="M24.9,2.4h13.3c2.2,0,3.8,0.5,4.8,1.5c1,1,1.5,2.5,1.5,4.5c0,1.3-0.3,2.4-0.9,3.2c-0.6,0.8-1.3,1.4-2.1,1.7
		c1.8,0.5,3,1.7,3.6,3.6c0.2,0.7,0.3,1.5,0.3,2.4c0,2.2-0.5,3.8-1.5,4.8c-1,1-2.6,1.5-4.8,1.5H24.9V2.4z M38.5,9c0-1.3-0.7-2-2-2
		h-5.6v4.6h5.6c1.3,0,2-0.7,2-2V9z M39.5,18.3c0-1.3-0.7-2-2-2h-6.6V21h6.6c1.3,0,2-0.7,2-2V18.3z"/>
	<path d="M55.4,8.7v16.9h-5.8V13.2h-2.5V8.7H55.4z M49.6,2.1h5.8v4.6h-5.8V2.1z"/>
	<path d="M64.5,8.4c2.1-0.4,4-0.7,5.6-0.7h1.5c1.5,0,2.7,0.5,3.6,1.4c0.9,0.9,1.4,2.1,1.4,3.6v12.9h-5.8V13.3c0-0.3-0.1-0.6-0.3-0.8
		c-0.2-0.2-0.5-0.3-0.8-0.3h-1.2c-0.8,0-1.6,0-2.3,0.1c-0.7,0.1-1.3,0.2-1.7,0.2v13.1h-5.8V2.4h5.8V8.4z"/>
	<path d="M91.4,8h6.1l-6.6,17.6h-6.6L77.6,8h6.1L87.5,20L91.4,8z"/>
	<path d="M106.1,8.7v16.9h-5.8V13.2h-2.5V8.7H106.1z M100.3,2.1h5.8v4.6h-5.8V2.1z"/>
	<path d="M111.1,31.6c-2.1,0-4.2-0.1-6.3-0.3v-4.3h4.3c0.3,0,0.6-0.1,0.8-0.3c0.2-0.2,0.3-0.5,0.3-0.8V8.7h5.8v17.9
		c0,1.5-0.5,2.7-1.4,3.6C113.8,31.1,112.6,31.6,111.1,31.6z M110.3,2.1h5.8v4.6h-5.8V2.1z"/>
	<path d="M135.6,25.3c-4.3,0.4-8.1,0.7-11.6,0.7c-1.5,0-2.7-0.5-3.6-1.4c-0.9-0.9-1.4-2.1-1.4-3.6v-8c0-1.7,0.5-3,1.4-3.9
		c0.9-0.9,2.2-1.4,3.9-1.4h6.6c1.7,0,3,0.5,3.9,1.4c0.9,0.9,1.4,2.2,1.4,3.9v6.1h-11.4v1.3c0,0.3,0.1,0.6,0.3,0.8
		c0.2,0.2,0.5,0.3,0.8,0.3c2.2,0,5.4-0.2,9.6-0.5V25.3z M126.2,11.9c-0.9,0-1.3,0.4-1.3,1.3V15h5.6v-1.8c0-0.9-0.4-1.3-1.3-1.3
		H126.2z"/>
	<path d="M138.6,21c4.5,0.3,8,0.5,10.6,0.5c0.3,0,0.6-0.1,0.8-0.3c0.2-0.2,0.3-0.5,0.3-0.8v-1.2h-7.1c-1.5,0-2.7-0.5-3.6-1.4
		c-0.9-0.9-1.4-2.1-1.4-3.6V13c0-1.5,0.5-2.7,1.4-3.6c0.9-0.9,2.1-1.4,3.6-1.4h11.3v4.3h-9.3c-0.3,0-0.6,0.1-0.8,0.3
		c-0.2,0.2-0.3,0.5-0.3,0.8c0,0.3,0.1,0.6,0.3,0.8c0.2,0.2,0.5,0.3,0.8,0.3h6c1.5,0,2.7,0.5,3.6,1.4c0.9,0.9,1.4,2.1,1.4,3.6V21
		c0,1.5-0.5,2.7-1.4,3.6c-0.9,0.9-2.1,1.4-3.6,1.4c-3.9,0-8.1-0.2-12.6-0.7V21z"/>
	<path d="M170.8,25.6c-2.1,0.2-4.2,0.3-6.3,0.3c-1.5,0-2.7-0.5-3.6-1.4c-0.9-0.9-1.4-2.1-1.4-3.6v-8.5h-2V8h2l0.7-4h5.1v4h4.1v4.5
		h-4.1v7.6c0,0.3,0.1,0.6,0.3,0.8c0.2,0.2,0.5,0.3,0.8,0.3h4.3V25.6z"/>
	<path d="M179.7,8.7v16.9h-5.8V13.2h-2.5V8.7H179.7z M173.9,2.1h5.8v4.6h-5.8V2.1z"/>
</g>
</svg>
